<svg xmlns="http://www.w3.org/2000/svg" width="549.371" height="264.31" viewBox="0 0 549.371 264.31">
  <g id="Group_8" data-name="Group 8" transform="translate(-87 -149.158)">
    <path id="ic_gps_fixed_24px" d="M26.186,17.114a9.208,9.208,0,1,0,9.158,9.208A9.181,9.181,0,0,0,26.186,17.114ZM46.655,24.02A20.649,20.649,0,0,0,28.475,5.742V1H23.9V5.742A20.649,20.649,0,0,0,5.717,24.02H1v4.6H5.717A20.649,20.649,0,0,0,23.9,46.9v4.742h4.579V46.9a20.649,20.649,0,0,0,18.18-18.278h4.717v-4.6H46.655ZM26.186,42.436A16.114,16.114,0,1,1,42.213,26.322,16.059,16.059,0,0,1,26.186,42.436Z" transform="translate(585 229)" fill="#1f735a"/>
    <g id="Group_7" data-name="Group 7">
      <g id="Group_5" data-name="Group 5" transform="translate(43 78)">
        <text id="Spoiler" transform="translate(293 195)" fill="#707070" font-size="65" font-family="SegoeUI-Bold, Segoe UI" font-weight="700"><tspan x="0" y="0">Spoiler</tspan></text>
        <g id="Group_4" data-name="Group 4" transform="translate(-2 2)">
          <g id="Group_1" data-name="Group 1" transform="translate(104.045 -56.888) rotate(25)">
            <circle id="ic_fiber_manual_record_24px" cx="40" cy="40" r="40" transform="translate(165.974 149.74)" fill="#238c6d"/>
            <path id="ic_donut_large_24px" d="M65.369,21.9,65.7,1.906C48.134,3.647,30.776,12.233,19.368,25A68.121,68.121,0,0,0,2,70.4c0,29.179,14.235,52.557,40.33,62.581a107.621,107.621,0,0,0,13.636,4.279l2.305-20.535s-2.254-.778-2.876-1.071c-.825-.386-1.857-.939-2.442-1.269a26.216,26.216,0,0,1-3.075-1.4,19.878,19.878,0,0,0-2.252-1.37C32.1,104.1,23.533,86.843,23.533,67.7,23.533,43.627,44.663,25.182,65.369,21.9Zm54.626,41.426,19.968-.051c-3.244-34.2-27.714-57.919-62.225-61.133L77.7,21.823C98.4,24.764,117.027,42.806,119.995,63.325Zm-50,55.472-.779,18.645c.709-.066,3.338-.17,4.777-.4,1.184-.189,2.647-.406,4.176-.715.857-.172,3.073-.6,4.343-.9,2.106-.5,2.9-.917,5.259-1.657,2.378-.746,4.73-1.592,7.294-2.635,1.712-.7,3.4-1.446,5.3-2.358a82.5,82.5,0,0,0,17.861-11.615,93.733,93.733,0,0,0,14.89-18.806,98.875,98.875,0,0,0,5.716-14.495c.286-2.085,1.455-6.544,1.455-6.544l-20.816-1.025c-2.659,18.385-17.346,34.912-35.451,40.143a74.409,74.409,0,0,1-7.985,1.844C74.691,118.506,70.579,118.714,69.993,118.8Z" transform="translate(133.945 119.94)" fill="rgba(45,40,40,0.75)"/>
            <circle id="ic_fiber_manual_record_24px-2" data-name="ic_fiber_manual_record_24px" cx="25" cy="25" r="25" transform="translate(168.425 278.857)" fill="#0e6048"/>
            <circle id="ic_fiber_manual_record_24px-3" data-name="ic_fiber_manual_record_24px" cx="25" cy="25" r="25" transform="translate(182.995 53.745)" fill="#0e6048"/>
            <circle id="ic_fiber_manual_record_24px-4" data-name="ic_fiber_manual_record_24px" cx="20" cy="20" r="20" transform="translate(98.738 259.783)" fill="#0e6048"/>
            <circle id="ic_fiber_manual_record_24px-5" data-name="ic_fiber_manual_record_24px" cx="25" cy="25" r="25" transform="translate(290.974 165.439)" fill="#0e6048"/>
          </g>
          <g id="Group_3" data-name="Group 3">
            <path id="ic_sort_24px" d="M3,6V9H43V6Z" transform="matrix(0.819, 0.574, -0.574, 0.819, 106.822, 252.289)" fill="#0e6048"/>
            <path id="ic_sort_24px-2" data-name="ic_sort_24px" d="M3,6V8.727H55.59V6H3Z" transform="translate(195.915 235.407) rotate(120)" fill="rgba(14,96,72,0.92)"/>
            <path id="ic_sort_24px-3" data-name="ic_sort_24px" d="M3,6V8.727H53.866V6H3Z" transform="matrix(-0.438, 0.899, -0.899, -0.438, 257.092, 120.479)" fill="rgba(14,96,72,0.92)"/>
            <path id="ic_sort_24px-4" data-name="ic_sort_24px" d="M3,6V8.727H48.579V6H3Z" transform="translate(286.896 246.313) rotate(-155)" fill="rgba(14,96,72,0.92)"/>
          </g>
        </g>
      </g>
      <g id="Group_6" data-name="Group 6">
        <path id="ic_flare_24px" d="M4.058,6.53H1V7.636H4.058ZM5.164,4.738,4.083,3.566l-.719.78,1.08,1.172ZM7.116,1H6.1V4.318H7.116ZM9.848,4.345l-.719-.78L8.049,4.738l.719.78ZM9.155,6.53V7.636h3.058V6.53ZM6.606,5.424A1.6,1.6,0,0,0,5.077,7.083,1.6,1.6,0,0,0,6.606,8.742,1.6,1.6,0,0,0,8.135,7.083,1.6,1.6,0,0,0,6.606,5.424Zm1.442,4L9.129,10.6l.719-.78L8.767,8.648l-.719.78ZM3.365,9.82l.719.78,1.08-1.172-.719-.78ZM6.1,13.165H7.116V9.847H6.1Z" transform="translate(116 190)" fill="#37b7b7"/>
        <path id="ic_flare_24px-2" data-name="ic_flare_24px" d="M4.058,6.53H1V7.636H4.058ZM5.164,4.738,4.083,3.566l-.719.78,1.08,1.172ZM7.116,1H6.1V4.318H7.116ZM9.848,4.345l-.719-.78L8.049,4.738l.719.78ZM9.155,6.53V7.636h3.058V6.53ZM6.606,5.424A1.6,1.6,0,0,0,5.077,7.083,1.6,1.6,0,0,0,6.606,8.742,1.6,1.6,0,0,0,8.135,7.083,1.6,1.6,0,0,0,6.606,5.424Zm1.442,4L9.129,10.6l.719-.78L8.767,8.648l-.719.78ZM3.365,9.82l.719.78,1.08-1.172-.719-.78ZM6.1,13.165H7.116V9.847H6.1Z" transform="translate(141 258)" fill="#686027"/>
        <path id="ic_flare_24px-3" data-name="ic_flare_24px" d="M4.058,6.53H1V7.636H4.058ZM5.164,4.738,4.083,3.566l-.719.78,1.08,1.172ZM7.116,1H6.1V4.318H7.116ZM9.848,4.345l-.719-.78L8.049,4.738l.719.78ZM9.155,6.53V7.636h3.058V6.53ZM6.606,5.424A1.6,1.6,0,0,0,5.077,7.083,1.6,1.6,0,0,0,6.606,8.742,1.6,1.6,0,0,0,8.135,7.083,1.6,1.6,0,0,0,6.606,5.424Zm1.442,4L9.129,10.6l.719-.78L8.767,8.648l-.719.78ZM3.365,9.82l.719.78,1.08-1.172-.719-.78ZM6.1,13.165H7.116V9.847H6.1Z" transform="translate(86 342)" fill="#9f9345"/>
        <path id="ic_flare_24px-4" data-name="ic_flare_24px" d="M4.058,6.53H1V7.636H4.058ZM5.164,4.738,4.083,3.566l-.719.78,1.08,1.172ZM7.116,1H6.1V4.318H7.116ZM9.848,4.345l-.719-.78L8.049,4.738l.719.78ZM9.155,6.53V7.636h3.058V6.53ZM6.606,5.424A1.6,1.6,0,0,0,5.077,7.083,1.6,1.6,0,0,0,6.606,8.742,1.6,1.6,0,0,0,8.135,7.083,1.6,1.6,0,0,0,6.606,5.424Zm1.442,4L9.129,10.6l.719-.78L8.767,8.648l-.719.78ZM3.365,9.82l.719.78,1.08-1.172-.719-.78ZM6.1,13.165H7.116V9.847H6.1Z" transform="translate(122 390)" fill="#37b7b7"/>
        <path id="ic_flare_24px-5" data-name="ic_flare_24px" d="M4.058,6.53H1V7.636H4.058ZM5.164,4.738,4.083,3.566l-.719.78,1.08,1.172ZM7.116,1H6.1V4.318H7.116ZM9.848,4.345l-.719-.78L8.049,4.738l.719.78ZM9.155,6.53V7.636h3.058V6.53ZM6.606,5.424A1.6,1.6,0,0,0,5.077,7.083,1.6,1.6,0,0,0,6.606,8.742,1.6,1.6,0,0,0,8.135,7.083,1.6,1.6,0,0,0,6.606,5.424Zm1.442,4L9.129,10.6l.719-.78L8.767,8.648l-.719.78ZM3.365,9.82l.719.78,1.08-1.172-.719-.78ZM6.1,13.165H7.116V9.847H6.1Z" transform="translate(319 218)" fill="#37b7b7"/>
      </g>
    </g>
  </g>
</svg>
